<svg xmlns="http://www.w3.org/2000/svg" width="63.667" height="48.928" viewBox="0 0 63.667 48.928"><defs><style>.a{fill:#fbb03b;}.b{fill:#e58126;}.c{fill:#535b65;}.d{fill:#28292e;}.e{fill:#fff;}</style></defs><g transform="translate(-34.568 -31.7)"><path class="a" d="M66.045,33.4c-19.034,0-30.006,17.354-28.327,39.075,0,0,14.891,1.567,28.327,1.567s28.327-1.567,28.327-1.567C96.051,50.754,85.079,33.4,66.045,33.4Z" transform="translate(0.357 0.203)"/><path class="b" d="M63,31.7V57.564h0c3.583,0,4.926-10.525,5.374-23.4C67.479,32.484,64.791,31.7,63,31.7Z" transform="translate(3.402 0)"/><path class="b" d="M63.574,31.7V57.564h0c-3.583,0-4.926-10.525-5.374-23.4C59.1,32.484,61.783,31.7,63.574,31.7Z" transform="translate(2.827 0)"/><path class="b" d="M81.9,42.154c0-3.807-5.374-7.166-7.054-5.822,1.456,9.517-2.127,16.459.672,16.459C78.093,51.783,81.9,46.521,81.9,42.154Z" transform="translate(4.767 0.518)"/><path class="b" d="M44.9,42.154c0-3.807,5.374-7.166,7.054-5.822-1.456,9.517,2.127,16.459-.672,16.459C48.707,51.783,44.9,46.521,44.9,42.154Z" transform="translate(1.236 0.518)"/><path class="b" d="M98.2,68.759C97.416,66.967,94.84,65.4,94.84,65.4A143.949,143.949,0,0,1,66.4,68.311,143.949,143.949,0,0,1,37.963,65.4s-2.575,1.567-3.359,3.359S46.024,76.6,66.4,76.6,98.983,70.55,98.2,68.759Z" transform="translate(0 4.032)"/><path class="c" d="M90.865,59.234H67.8V53.3H89.857Z" transform="translate(3.976 2.584)"/><path class="c" d="M37.6,59.234H60.665V53.3H38.608Z" transform="translate(0.363 2.584)"/><circle class="d" cx="13.436" cy="13.436" r="13.436" transform="translate(52.966 45.36)"/><circle class="e" cx="10.189" cy="10.189" r="10.189" transform="translate(56.213 48.607)"/></g></svg>