<svg xmlns="http://www.w3.org/2000/svg" width="63.667" height="50.19" viewBox="0 0 63.667 50.19"><defs><style>.a{fill:#014466;}.b{fill:#0f5a80;}.c{fill:#1c6f99;}.d{fill:#2a85b3;}.e{fill:#5bb7e6;}.f{fill:#429ecc;}.g{fill:#d0efff;}.h{fill:#a2e0ff;}</style></defs><path class="a" d="M0,46.009c0-5.038,9.131-7.935,17-7.935,4.6,0,9.32.819,12.595,0C33.691,37.067,35.454,34.8,42.13,34.8c7.872,0,21.537,4.849,21.537,9.887,0,5.794-11.4,4.282-13.35,9.32-1.826,4.66-6.423,9.068-14.3,9.068-2.9,0-5.416-1.259-7.809-1.511-1.448-.126-2.96.5-4.534.5-6.864,0-10.957-4.03-13.98-7.116C6.549,51.8,0,49.347,0,46.009Z" transform="translate(0 -12.885)"/><path class="b" d="M2.4,44.75c0-4.282,8.439-7.179,16-7.179,4.408,0,8.942.693,12.091,0,3.967-.882,5.668-2.771,12.091-2.771,7.62,0,20.4,4.408,20.4,8.69,0,4.912-10.643,3.338-12.532,7.62-1.7,3.967-6.171,7.683-13.728,7.683-2.771,0-5.227-1.071-7.557-1.259-1.385-.126-2.834.378-4.345.378-6.612,0-10.58-3.4-13.476-6.046C8.32,49.158,2.4,47.584,2.4,44.75Z" transform="translate(-0.889 -12.885)"/><path class="c" d="M4.8,43.453c0-3.527,7.683-6.486,15.051-6.486,4.282,0,8.627.567,11.65,0,3.778-.693,5.479-2.267,11.587-2.267,7.3,0,19.27,3.967,19.27,7.431,0,4.03-9.887,2.456-11.65,5.983-1.7,3.275-5.92,6.36-13.288,6.36-2.708,0-5.038-.882-7.242-1.071-1.322-.126-2.708.315-4.219.315-6.36,0-10.139-2.834-12.973-4.975C10.153,46.539,4.8,45.72,4.8,43.453Z" transform="translate(-1.777 -12.848)"/><path class="d" d="M7.2,42.057c0-2.771,6.99-5.731,14.043-5.731,4.093,0,8.313.441,11.209,0C36.105,35.759,37.679,34.5,43.6,34.5c7.053,0,18.137,3.464,18.137,6.234,0,3.212-9.131,1.511-10.832,4.345-1.637,2.582-5.731,4.975-12.784,4.975-2.582,0-4.849-.693-6.99-.819-1.322-.063-2.645.252-4.03.252a21.552,21.552,0,0,1-12.469-3.9C11.923,43.883,7.2,43.883,7.2,42.057Z" transform="translate(-2.666 -12.774)"/><g transform="translate(12.973 26.449)"><g transform="translate(25.442 0.063)"><path class="e" d="M76.806,42.1,68.053,55.576,61,42.1l9.005,3.023Z" transform="translate(-61 -42.1)"/><path class="f" d="M72.2,55.576l1.952-10.454,6.8-3.023Z" transform="translate(-65.147 -42.1)"/></g><path class="e" d="M32.754,42l-8,9.383L20.6,42l6.927,1.889Z" transform="translate(-20.6 -42)"/><path class="f" d="M27.2,51.383l2.771-7.494L35.2,42Z" transform="translate(-23.044 -42)"/><g transform="translate(4.849 5.605)"><path class="e" d="M44.232,54.678,56.26,50.9,44.673,68.911c-2.141-.315-4.156-1.134-6.046-1.322a5.23,5.23,0,0,0-1.385.063L28.3,50.9Z" transform="translate(-28.3 -50.9)"/><path class="f" d="M52.745,68.948c-.945-.126-1.826-.378-2.645-.567l2.2-13.6L64.332,51Z" transform="translate(-36.372 -50.937)"/></g></g><g transform="translate(12.973)"><g transform="translate(25.442 0.441)"><path class="g" d="M76.806,26.771,70.257.7,61,26.771l9.005,3.086Z" transform="translate(-61 -0.7)"/><path class="h" d="M75.552.7,75.3,29.857l6.8-3.086Z" transform="translate(-66.295 -0.7)"/></g><g transform="translate(0 10.643)"><path class="g" d="M32.754,32.706,27.716,16.9,20.6,32.706,27.527,34.6Z" transform="translate(-20.6 -16.9)"/><path class="h" d="M31.789,16.9,31.6,34.6l5.227-1.889Z" transform="translate(-24.673 -16.9)"/></g><g transform="translate(4.849)"><path class="g" d="M56.26,32.054,44.673,0,28.3,32.054l15.932,3.778Z" transform="translate(-28.3)"/><path class="h" d="M54.041,0,53.6,35.832l12.028-3.778Z" transform="translate(-37.668)"/></g></g></svg>