<svg id="Layer_1" data-name="Layer 1" xmlns="http://www.w3.org/2000/svg" viewBox="0 0 90.7 90"><defs><style>.cls-1{fill:#342f33;}.cls-2{fill:#604d3f;}.cls-3{fill:#42342a;}.cls-4{fill:#d3ca53;}.cls-5{fill:#c6b044;}.cls-6{fill:#e8db64;}.cls-7{fill:#f29031;}.cls-8{fill:#efded0;}.cls-9{fill:#6d9b97;}.cls-10{fill:#3a2d26;}.cls-11{fill:#e0d0c1;}.cls-12{fill:#e58e88;}.cls-13{fill:#c99085;}.cls-14{fill:#7f392f;}.cls-15{fill:#a34c3b;}.cls-16{fill:#4f6d6b;}.cls-17{fill:#261e1d;}.cls-18{fill:#dd7455;}.cls-19{fill:#bf5c45;}.cls-20{fill:#f4af9f;}.cls-21{fill:#719b99;}.cls-22{fill:#8fc6c3;}.cls-23{fill:#2d2625;}.cls-24{fill:#efb3ab;}.cls-25{fill:#1d1d1b;opacity:0.3;isolation:isolate;}</style></defs><title>111</title><path class="cls-1" d="M292.9,257h90.7v1.5H292.9Z" transform="translate(-292.9 -168.5)"/><path class="cls-2" d="M301.9,250.9h4.4V257h-4.4Z" transform="translate(-292.9 -168.5)"/><path class="cls-3" d="M301.9,252.3v1a3.59,3.59,0,0,0,4.4,0v-1.9Z" transform="translate(-292.9 -168.5)"/><path class="cls-4" d="M304,211.4c-6.7.3-7.7,19.7-7.6,30.6s7.6,10.7,7.6,10.7,7.4.2,7.6-10.7S310.6,211.7,304,211.4Z" transform="translate(-292.9 -168.5)"/><path class="cls-5" d="M311,235.8c-1.8,6.2-4.8,10.2-8.5,11.2a5.44,5.44,0,0,1-5.8-2.1c1.3,8,7.3,7.9,7.3,7.9s7.4.2,7.6-10.7c0-2.3,0-5-.1-7.9A7.49,7.49,0,0,0,311,235.8Z" transform="translate(-292.9 -168.5)"/><path class="cls-6" d="M302.3,218.9c-.9,1.9-2,2.8-2.5,2s-.1-2.9.8-4.8,2-2.8,2.5-2S303.2,217,302.3,218.9Z" transform="translate(-292.9 -168.5)"/><ellipse class="cls-7" cx="53.8" cy="76.2" rx="1" ry="0.8"/><path class="cls-8" d="M348.7,230.1V254H337.3V230.1Zm-1,12.2V231.2h-9.3v11.1Zm0,2.4a.92.92,0,0,0-1-.8,1,1,0,0,0-1,.8.92.92,0,0,0,1,.8A1,1,0,0,0,347.7,244.7Z" transform="translate(-292.9 -168.5)"/><path class="cls-9" d="M363.8,233.4v1l-3.5,2.2Z" transform="translate(-292.9 -168.5)"/><path class="cls-9" d="M361.2,230.1l-3.7,3,2.6-3Z" transform="translate(-292.9 -168.5)"/><path class="cls-9" d="M362.2,232.1l-4.8,5.3h-.6v-1Z" transform="translate(-292.9 -168.5)"/><path class="cls-9" d="M364.1,207.2v.9l-3.4,2.2Z" transform="translate(-292.9 -168.5)"/><path class="cls-10" d="M370,254l1.2,3H367v-3Z" transform="translate(-292.9 -168.5)"/><path class="cls-11" d="M370.5,168.5l-.9,5.9H353.4v-5.9Z" transform="translate(-292.9 -168.5)"/><path class="cls-12" d="M369,191.8v2h-1.2v-2Z" transform="translate(-292.9 -168.5)"/><path class="cls-12" d="M369,184.8v1.9h-1.1v-1.9Z" transform="translate(-292.9 -168.5)"/><path class="cls-12" d="M369,177.8v2h-1v-2Z" transform="translate(-292.9 -168.5)"/><path class="cls-12" d="M368.8,217.6v2h-1.3v-2Z" transform="translate(-292.9 -168.5)"/><path class="cls-12" d="M368.8,210.6v1.9h-1.3l.1-1.9Z" transform="translate(-292.9 -168.5)"/><path class="cls-12" d="M368.8,203.6v2h-1.2l.1-2Z" transform="translate(-292.9 -168.5)"/><path class="cls-13" d="M368.6,196.3v3.3h-.9l.1-3.3Z" transform="translate(-292.9 -168.5)"/><path class="cls-12" d="M368.6,188.1v2h-.8l.1-2Z" transform="translate(-292.9 -168.5)"/><path class="cls-12" d="M368.6,181.2v2h-.7l.1-2Z" transform="translate(-292.9 -168.5)"/><path class="cls-13" d="M368.5,222v3.2h-1.1V222Z" transform="translate(-292.9 -168.5)"/><path class="cls-12" d="M368.4,213.9v2h-.9v-2Z" transform="translate(-292.9 -168.5)"/><path class="cls-12" d="M368.4,207v2h-.8v-2Z" transform="translate(-292.9 -168.5)"/><path class="cls-12" d="M368.2,249.8v2H367l.1-2Z" transform="translate(-292.9 -168.5)"/><path class="cls-12" d="M368,242.4v2h-.9l.1-2Z" transform="translate(-292.9 -168.5)"/><path class="cls-12" d="M368,235.4v2h-.8v-2Z" transform="translate(-292.9 -168.5)"/><path class="cls-12" d="M368,228.5v2h-.7v-2Z" transform="translate(-292.9 -168.5)"/><path class="cls-14" d="M368,174.4v2.5a26.65,26.65,0,0,0-14.6,0v-2.5Z" transform="translate(-292.9 -168.5)"/><path class="cls-15" d="M368,176.9v.9h-2v2h2v1.4h-2.3v2H368v1.5h-2v2h1.9v1.4h-2.2v2h2.2v1.6H366v2h1.8v2.6H353.4V176.9A26.77,26.77,0,0,1,368,176.9Zm-3.2,15.9V178.2h-8.1v14.6Z" transform="translate(-292.9 -168.5)"/><path class="cls-12" d="M368,177.8v2h-2v-2Z" transform="translate(-292.9 -168.5)"/><path class="cls-12" d="M368,181.2l-.1,2h-2.3v-2Z" transform="translate(-292.9 -168.5)"/><path class="cls-12" d="M367.9,184.8v1.9H366v-1.9Z" transform="translate(-292.9 -168.5)"/><path class="cls-12" d="M367.9,246.1v2h-.8v-2Z" transform="translate(-292.9 -168.5)"/><path class="cls-12" d="M367.9,188.1l-.1,2h-2.2v-2Z" transform="translate(-292.9 -168.5)"/><path class="cls-12" d="M367.8,191.8v2H366v-2Z" transform="translate(-292.9 -168.5)"/><path class="cls-13" d="M367.8,196.3l-.1,3.3H353.4v-3.3Z" transform="translate(-292.9 -168.5)"/><path class="cls-12" d="M367.8,238.8v2h-.6v-2Z" transform="translate(-292.9 -168.5)"/><path class="cls-12" d="M367.8,231.9v1.9h-.5v-1.9Z" transform="translate(-292.9 -168.5)"/><path class="cls-14" d="M367.7,199.6v2.2a32.92,32.92,0,0,0-14.3,0v-2.2Z" transform="translate(-292.9 -168.5)"/><path class="cls-15" d="M367.7,201.8v1.9h-1.8v2h1.8v1.4h-2.2v2h2.1v1.5h-1.7v2h1.7V214h-2.1v2h2v1.6h-1.7v2h1.6v2.5h-14V201.8a31.23,31.23,0,0,1,14.3,0Zm-2.9,16V203.2h-8.1v14.6Z" transform="translate(-292.9 -168.5)"/><path class="cls-12" d="M367.7,203.6l-.1,2h-1.8v-2Z" transform="translate(-292.9 -168.5)"/><path class="cls-12" d="M367.6,207v2h-2.1v-2Z" transform="translate(-292.9 -168.5)"/><path class="cls-12" d="M367.6,210.6l-.1,1.9h-1.7v-1.9Z" transform="translate(-292.9 -168.5)"/><path class="cls-12" d="M367.5,213.9v2h-2v-2Z" transform="translate(-292.9 -168.5)"/><path class="cls-12" d="M367.5,217.6v2h-1.7v-2Z" transform="translate(-292.9 -168.5)"/><path class="cls-13" d="M367.4,222v3.2h-14V222Z" transform="translate(-292.9 -168.5)"/><path class="cls-14" d="M367.4,225.2v1.9a37.18,37.18,0,0,0-13.9,0v-1.9Z" transform="translate(-292.9 -168.5)"/><path class="cls-15" d="M367.4,227.1v1.4h-1.8v2h1.7v1.4h-2v2h2v1.5h-1.7v2h1.6v1.4h-1.9v2h1.9v1.6h-1.6v2h1.5v1.8h-1.7v2H367v1.6h-1.3v2H367V254H353.4V227.1A37.63,37.63,0,0,1,367.4,227.1Zm-3,16.9V229.4h-8.1V244Z" transform="translate(-292.9 -168.5)"/><path class="cls-12" d="M367.3,228.5v2h-1.7v-2Z" transform="translate(-292.9 -168.5)"/><path class="cls-12" d="M367.3,231.9v1.9h-2v-1.9Z" transform="translate(-292.9 -168.5)"/><path class="cls-12" d="M367.2,235.4v2h-1.6v-2Z" transform="translate(-292.9 -168.5)"/><path class="cls-12" d="M367.2,238.8v2h-1.9v-2Z" transform="translate(-292.9 -168.5)"/><path class="cls-12" d="M367.2,242.4l-.1,2h-1.5v-2Z" transform="translate(-292.9 -168.5)"/><path class="cls-12" d="M367.1,246.1v2h-1.7v-2Z" transform="translate(-292.9 -168.5)"/><path class="cls-12" d="M367.1,249.8l-.1,2h-1.3v-2Z" transform="translate(-292.9 -168.5)"/><path class="cls-10" d="M367,254v3H353.4v-3Z" transform="translate(-292.9 -168.5)"/><path class="cls-10" d="M364.8,178.2v14.6h-8.1V178.2Zm-.6,9v-8.3h-6.9v13.3h6.9Z" transform="translate(-292.9 -168.5)"/><path class="cls-10" d="M364.8,203.1v14.6h-8.1V203.1Zm-.7,9.1v-8.3h-6.9v13.3h6.9Z" transform="translate(-292.9 -168.5)"/><path class="cls-10" d="M364.4,229.4V244h-8.1V229.4Zm-.6,9v-8.3h-6.9v13.3h6.9Z" transform="translate(-292.9 -168.5)"/><path class="cls-7" d="M357.3,187.2h6.9v4.9h-6.9Z" transform="translate(-292.9 -168.5)"/><path class="cls-10" d="M364.2,186.2v1h-6.9v-1h6.9Z" transform="translate(-292.9 -168.5)"/><path class="cls-16" d="M364.2,183.1v3.1h-6.4l4.8-5.3-5.3,4.3v-6.3h3.2l-2.6,3,3.7-3h2.6v3.3l-3.4,3.2Z" transform="translate(-292.9 -168.5)"/><path class="cls-9" d="M364.2,182.2v.9l-3.4,2.3Z" transform="translate(-292.9 -168.5)"/><path class="cls-17" d="M357.2,212.2h6.9v4.9h-6.9Z" transform="translate(-292.9 -168.5)"/><path class="cls-10" d="M364.1,211.1v1.1h-6.9v-1.1h6.9Z" transform="translate(-292.9 -168.5)"/><path class="cls-16" d="M364.1,208.1v3h-6.3l4.7-5.2-5.3,4.2v-6.2h3.3l-2.6,3,3.6-3h2.6v3.3l-3.4,3.1Z" transform="translate(-292.9 -168.5)"/><path class="cls-7" d="M356.8,238.4h6.9v4.9h-6.9Z" transform="translate(-292.9 -168.5)"/><path class="cls-10" d="M363.8,237.4v1h-7v-1h7Z" transform="translate(-292.9 -168.5)"/><path class="cls-16" d="M363.8,234.4v3h-6.4l4.8-5.3-5.4,4.3v-6.3h3.3l-2.6,3,3.7-3h2.6v3.3l-3.5,3.2Z" transform="translate(-292.9 -168.5)"/><path class="cls-9" d="M362.6,180.9l-4.8,5.3h-.5v-1Z" transform="translate(-292.9 -168.5)"/><path class="cls-9" d="M362.5,205.9l-4.7,5.2h-.6v-1Z" transform="translate(-292.9 -168.5)"/><path class="cls-9" d="M361.6,178.9l-3.7,3,2.6-3Z" transform="translate(-292.9 -168.5)"/><path class="cls-9" d="M361.5,203.9l-3.6,3,2.6-3Z" transform="translate(-292.9 -168.5)"/><path class="cls-2" d="M353.4,254v3H309.7v-3h43.7Z" transform="translate(-292.9 -168.5)"/><path class="cls-18" d="M353.4,227.1V254h-3.7V228.9H336.3V254H309.7v-1.4h1.5v-2h-1.6V249h1.9v-2h-1.9v-1.5h.6v-2h-.6v-1.6h.8v-2h-.9v-1.4h.6v-2h-.6V235h.9v-2h-.9v-1.4h.7v-2h-.7v-2.5c.1,0,25.7-1.3,43.9,0Zm-20.1,16.2V228.7h-8.5v14.6Zm-13.2,0V228.7h-8.5v14.6Z" transform="translate(-292.9 -168.5)"/><path class="cls-19" d="M353.4,225.2v1.9c-18.2-1.3-43.9,0-43.9,0v-1.9Z" transform="translate(-292.9 -168.5)"/><path class="cls-20" d="M353.4,222v3.2H309.5V222Z" transform="translate(-292.9 -168.5)"/><path class="cls-18" d="M353.4,201.8V222H309.5v-1.9h2.4v-2h-2.4v-1.6h2.9v-2h.8v3.2h8.5V203.1h-8.5v4.5h-3.7v-1.4H312v-2h-2.5v-2.4C309.4,201.8,334.7,199.3,353.4,201.8Zm-5.2,15.9V203.1h-8.5v14.6Zm-13.4,0V203.1h-8.5v14.6Z" transform="translate(-292.9 -168.5)"/><path class="cls-19" d="M353.4,199.6v2.2c-18.7-2.4-44,0-44,0v-2.2Z" transform="translate(-292.9 -168.5)"/><path class="cls-20" d="M353.4,196.3v3.3h-44v-3.3Z" transform="translate(-292.9 -168.5)"/><path class="cls-18" d="M353.4,176.9v19.4h-44V194h2.3v-2h-2.3v-1.6h2.8v-2h-2.8V187h2.3v-2h-2.3v-1.5h2.8v-2h-2.8v-1.4h2.4v-2h-2.4v-1.2C309.3,176.9,333.7,174.2,353.4,176.9Zm-5.2,15.9V178.2h-8.5v14.6Zm-13.4,0V178.2h-8.5v14.6Zm-13.2,0V178.2h-8.5v14.6Z" transform="translate(-292.9 -168.5)"/><path class="cls-19" d="M353.4,174.4v2.5c-19.7-2.7-44.1,0-44.1,0v-2.5Z" transform="translate(-292.9 -168.5)"/><path class="cls-8" d="M353.4,168.5v5.9H306.9l-2.4-5.9Z" transform="translate(-292.9 -168.5)"/><path class="cls-2" d="M349.7,228.9V254h-1V230.1H337.2V254h-.9V228.9Z" transform="translate(-292.9 -168.5)"/><path class="cls-2" d="M348.2,203.1v14.6h-8.5V203.1Zm-.6,9.1v-8.3h-7.2v13.3h7.3v-5Z" transform="translate(-292.9 -168.5)"/><path class="cls-2" d="M348.2,178.2v14.6h-8.5V178.2Zm-.6,9v-8.3h-7.2v13.3h7.3v-5Z" transform="translate(-292.9 -168.5)"/><path class="cls-2" d="M347.7,231.2v11.1h-9.3V231.2Zm-.8,10.3V232H339v9.4h7.9Z" transform="translate(-292.9 -168.5)"/><path class="cls-7" d="M340.3,212.2h7.3v4.9h-7.3Z" transform="translate(-292.9 -168.5)"/><path class="cls-2" d="M347.6,211.1v1.1h-7.3v-1.1h7.3Z" transform="translate(-292.9 -168.5)"/><path class="cls-21" d="M347.6,208.1v3h-6.7l5-5.2-5.6,4.2v-6.3h3.4l-2.7,3.1,3.8-3.1h2.8v3.3l-3.6,3.2Z" transform="translate(-292.9 -168.5)"/><path class="cls-22" d="M347.6,207.1v1l-3.6,2.2Z" transform="translate(-292.9 -168.5)"/><path class="cls-23" d="M340.3,187.2h7.3v4.9h-7.3Z" transform="translate(-292.9 -168.5)"/><path class="cls-2" d="M347.6,186.1v1.1h-7.3v-1.1h7.3Z" transform="translate(-292.9 -168.5)"/><path class="cls-21" d="M347.6,183.1v3h-6.7l5-5.2-5.6,4.3v-6.3h3.4l-2.7,3,3.8-3h2.8v3.3l-3.6,3.1Z" transform="translate(-292.9 -168.5)"/><path class="cls-22" d="M347.6,182.2v.9l-3.6,2.2Z" transform="translate(-292.9 -168.5)"/><path class="cls-21" d="M346.9,238.9v2.6H340l4.7-5.1-5.7,3.9V232h4.2l-3.4,4.1,6-4.1h1.1v5.5l-3.3,3Z" transform="translate(-292.9 -168.5)"/><path class="cls-22" d="M346.9,237.5v1.4l-3.3,1.6Z" transform="translate(-292.9 -168.5)"/><path class="cls-22" d="M345.9,180.9l-5,5.2h-.6v-.9Z" transform="translate(-292.9 -168.5)"/><path class="cls-22" d="M345.9,205.9l-5,5.2h-.6v-1Z" transform="translate(-292.9 -168.5)"/><path class="cls-22" d="M345.8,232l-6,4.1,3.4-4.1Z" transform="translate(-292.9 -168.5)"/><path class="cls-22" d="M344.8,178.9l-3.8,3,2.7-3Z" transform="translate(-292.9 -168.5)"/><path class="cls-22" d="M344.8,203.8l-3.8,3.1,2.7-3.1Z" transform="translate(-292.9 -168.5)"/><path class="cls-22" d="M344.7,236.4l-4.7,5.1h-1v-1.2Z" transform="translate(-292.9 -168.5)"/><path class="cls-2" d="M334.8,203.1v14.6h-8.5V203.1Zm-.7,9v-8.3h-7.2v13.3h7.3v-5Z" transform="translate(-292.9 -168.5)"/><path class="cls-2" d="M334.8,178.1v14.6h-8.5V178.1Zm-.7,9.1v-8.3h-7.2v13.3h7.3v-5Z" transform="translate(-292.9 -168.5)"/><path class="cls-7" d="M326.8,212.1h7.3V217h-7.3Z" transform="translate(-292.9 -168.5)"/><path class="cls-2" d="M334.1,211.1v1h-7.3v-1h7.3Z" transform="translate(-292.9 -168.5)"/><path class="cls-21" d="M334.1,208v3.1h-6.7l5-5.3-5.6,4.3v-6.3h3.5l-2.8,3,3.9-3h2.7v3.3l-3.6,3.2Z" transform="translate(-292.9 -168.5)"/><path class="cls-22" d="M334.1,207.1v.9l-3.6,2.3Z" transform="translate(-292.9 -168.5)"/><path class="cls-23" d="M326.8,187.2h7.3v4.9h-7.3Z" transform="translate(-292.9 -168.5)"/><path class="cls-2" d="M334.1,186.1v1.1h-7.3v-1.1h7.3Z" transform="translate(-292.9 -168.5)"/><path class="cls-21" d="M334.1,183.1v3h-6.7l5-5.2-5.6,4.3v-6.3h3.5l-2.8,3,3.9-3h2.7v3.3l-3.6,3.1Z" transform="translate(-292.9 -168.5)"/><path class="cls-22" d="M334.1,182.2v.9l-3.6,2.2Z" transform="translate(-292.9 -168.5)"/><path class="cls-2" d="M333.3,228.7v14.6h-8.5V228.7Zm-.7,9.1v-8.3h-7.2v13.3h7.3v-5Z" transform="translate(-292.9 -168.5)"/><path class="cls-23" d="M325.3,237.8h7.3v4.9h-7.3Z" transform="translate(-292.9 -168.5)"/><path class="cls-2" d="M332.6,236.7v1.1h-7.3v-1.1h7.3Z" transform="translate(-292.9 -168.5)"/><path class="cls-21" d="M332.6,233.7v3h-6.7l5-5.2-5.6,4.2v-6.2h3.4l-2.7,3,3.8-3h2.8v3.3l-3.6,3.1Z" transform="translate(-292.9 -168.5)"/><path class="cls-22" d="M332.6,232.8v.9l-3.6,2.2Z" transform="translate(-292.9 -168.5)"/><path class="cls-22" d="M332.4,180.9l-5,5.2h-.6v-.9Z" transform="translate(-292.9 -168.5)"/><path class="cls-22" d="M332.4,205.8l-5,5.3h-.6v-1Z" transform="translate(-292.9 -168.5)"/><path class="cls-22" d="M331.4,178.9l-3.9,3,2.8-3Z" transform="translate(-292.9 -168.5)"/><path class="cls-22" d="M331.4,203.8l-3.9,3,2.8-3Z" transform="translate(-292.9 -168.5)"/><path class="cls-22" d="M330.9,231.5l-5,5.2h-.6v-1Z" transform="translate(-292.9 -168.5)"/><path class="cls-22" d="M329.8,229.5l-3.8,3,2.7-3Z" transform="translate(-292.9 -168.5)"/><path class="cls-2" d="M321.6,203.1v14.6h-8.5V203.1Zm-.6,9v-8.3h-7.2v13.3h7.3v-5Z" transform="translate(-292.9 -168.5)"/><path class="cls-2" d="M321.6,178.1v14.6h-8.5V178.1Zm-.6,9.1v-8.3h-7.2v13.3h7.3v-5Z" transform="translate(-292.9 -168.5)"/><path class="cls-23" d="M313.7,212.1H321V217h-7.3Z" transform="translate(-292.9 -168.5)"/><path class="cls-2" d="M321,211.1v1h-7.3v-1H321Z" transform="translate(-292.9 -168.5)"/><path class="cls-21" d="M321,208v3.1h-6.8l5.1-5.3-5.6,4.3v-6.3h3.4l-2.7,3,3.8-3H321v3.3l-3.6,3.2Z" transform="translate(-292.9 -168.5)"/><path class="cls-22" d="M321,207.1v.9l-3.6,2.3Z" transform="translate(-292.9 -168.5)"/><path class="cls-7" d="M313.7,187.2H321v4.9h-7.3Z" transform="translate(-292.9 -168.5)"/><path class="cls-2" d="M321,186.1v1.1h-7.3v-1.1H321Z" transform="translate(-292.9 -168.5)"/><path class="cls-21" d="M321,183.1v3h-6.8l5.1-5.2-5.6,4.3v-6.3h3.4l-2.7,3,3.8-3H321v3.3l-3.6,3.1Z" transform="translate(-292.9 -168.5)"/><path class="cls-22" d="M321,182.2v.9l-3.6,2.2Z" transform="translate(-292.9 -168.5)"/><path class="cls-2" d="M320.1,228.7v14.6h-8.5V228.7Zm-.7,9.1v-8.3h-7.2v13.3h7.3v-5Z" transform="translate(-292.9 -168.5)"/><path class="cls-7" d="M312.1,237.8h7.3v4.9h-7.3Z" transform="translate(-292.9 -168.5)"/><path class="cls-2" d="M319.4,236.7v1.1h-7.3v-1.1h7.3Z" transform="translate(-292.9 -168.5)"/><path class="cls-21" d="M319.4,233.7v3h-6.7l5-5.2-5.6,4.2v-6.2h3.5l-2.8,3,3.9-3h2.7v3.3l-3.6,3.1Z" transform="translate(-292.9 -168.5)"/><path class="cls-22" d="M319.4,232.8v.9l-3.6,2.2Z" transform="translate(-292.9 -168.5)"/><path class="cls-22" d="M319.3,180.9l-5.1,5.2h-.5v-.9Z" transform="translate(-292.9 -168.5)"/><path class="cls-22" d="M319.3,205.8l-5.1,5.3h-.5v-1Z" transform="translate(-292.9 -168.5)"/><path class="cls-22" d="M318.2,178.9l-3.8,3,2.7-3Z" transform="translate(-292.9 -168.5)"/><path class="cls-22" d="M318.2,203.8l-3.8,3,2.7-3Z" transform="translate(-292.9 -168.5)"/><path class="cls-22" d="M317.7,231.5l-5,5.2h-.6v-1Z" transform="translate(-292.9 -168.5)"/><path class="cls-22" d="M316.7,229.5l-3.9,3,2.8-3Z" transform="translate(-292.9 -168.5)"/><path class="cls-18" d="M313.1,207.6v6.9h-3.6v-1.4h2.4v-2h-2.4v-1.6h2.8v-1.9Z" transform="translate(-292.9 -168.5)"/><path class="cls-24" d="M312.3,214.5v2h-2.8v-2Z" transform="translate(-292.9 -168.5)"/><path class="cls-24" d="M312.3,207.6v1.9h-2.8l-.1-1.9Z" transform="translate(-292.9 -168.5)"/><path class="cls-24" d="M312.1,188.5v1.9h-2.7l-.1-1.9Z" transform="translate(-292.9 -168.5)"/><path class="cls-24" d="M312.1,181.5v2h-2.8v-2Z" transform="translate(-292.9 -168.5)"/><path class="cls-24" d="M311.9,218.1v2h-2.4v-2Z" transform="translate(-292.9 -168.5)"/><path class="cls-24" d="M311.9,211.1v2h-2.4v-2Z" transform="translate(-292.9 -168.5)"/><path class="cls-24" d="M311.9,204.2v2h-2.5v-2Z" transform="translate(-292.9 -168.5)"/><path class="cls-24" d="M311.7,192.1v2h-2.3v-2Z" transform="translate(-292.9 -168.5)"/><path class="cls-24" d="M311.7,185.1v2h-2.4v-2Z" transform="translate(-292.9 -168.5)"/><path class="cls-24" d="M311.7,178.2v1.9h-2.4v-1.9Z" transform="translate(-292.9 -168.5)"/><path class="cls-24" d="M311.6,247v2h-1.9v-2Z" transform="translate(-292.9 -168.5)"/><path class="cls-24" d="M311.2,250.6v2h-1.5v-2Z" transform="translate(-292.9 -168.5)"/><path class="cls-24" d="M310.5,239.9v2h-.9v-2Z" transform="translate(-292.9 -168.5)"/><path class="cls-24" d="M310.5,233v2h-.9v-2Z" transform="translate(-292.9 -168.5)"/><path class="cls-24" d="M310.2,243.5v2h-.6v-2Z" transform="translate(-292.9 -168.5)"/><path class="cls-24" d="M310.2,236.5v2h-.6v-2Z" transform="translate(-292.9 -168.5)"/><path class="cls-24" d="M310.2,229.6v2h-.6v-2Z" transform="translate(-292.9 -168.5)"/><path class="cls-2" d="M309.7,254v3h-3.4l2.2-3Z" transform="translate(-292.9 -168.5)"/><path class="cls-24" d="M309.7,250.6v2h-1.3v-2Z" transform="translate(-292.9 -168.5)"/><path class="cls-24" d="M309.7,247v2h-.9v-2Z" transform="translate(-292.9 -168.5)"/><path class="cls-24" d="M309.6,243.5v2h-1.2v-2Z" transform="translate(-292.9 -168.5)"/><path class="cls-24" d="M309.6,239.9v2h-1v-2Z" transform="translate(-292.9 -168.5)"/><path class="cls-24" d="M309.6,236.5v2h-1.2v-2Z" transform="translate(-292.9 -168.5)"/><path class="cls-24" d="M309.6,235h-1v-2h1Z" transform="translate(-292.9 -168.5)"/><path class="cls-24" d="M309.6,229.6v2h-1.2v-2Z" transform="translate(-292.9 -168.5)"/><path class="cls-20" d="M309.5,222v3.2h-.9V222Z" transform="translate(-292.9 -168.5)"/><path class="cls-24" d="M309.5,218.1v2h-1.3v-2Z" transform="translate(-292.9 -168.5)"/><path class="cls-24" d="M309.5,214.5v2h-.9v-2Z" transform="translate(-292.9 -168.5)"/><path class="cls-24" d="M309.5,211.1v2h-1.3v-2Z" transform="translate(-292.9 -168.5)"/><path class="cls-24" d="M309.4,207.6l.1,1.9h-.9v-1.9Z" transform="translate(-292.9 -168.5)"/><path class="cls-24" d="M309.4,204.2v2h-1.2v-2Z" transform="translate(-292.9 -168.5)"/><path class="cls-20" d="M309.4,196.3v3.3h-1v-3.3Z" transform="translate(-292.9 -168.5)"/><path class="cls-24" d="M309.4,192.1v2H308v-2Z" transform="translate(-292.9 -168.5)"/><path class="cls-24" d="M309.3,188.5l.1,1.9h-1v-1.9Z" transform="translate(-292.9 -168.5)"/><path class="cls-24" d="M309.3,185.1v2H308v-2Z" transform="translate(-292.9 -168.5)"/><path class="cls-24" d="M309.3,181.5v2h-.9v-2Z" transform="translate(-292.9 -168.5)"/><path class="cls-24" d="M309.3,178.2v1.9H308v-1.9Z" transform="translate(-292.9 -168.5)"/><path class="cls-25" d="M368,174.4v3.4h1v2h-1v1.4h.7v2H368v1.5h1.1v2H368v1.4h.8v2H368v1.6h1.2v2H368v2.6h.9v3.2H368l-.1,4.1H369v2h-1.2V207h.8v2h-.9v1.5h1.2v2h-1.3v1.4h.9v2h-.9v1.6h1.3v2h-1.4V222h1v3.2h-1.1v3.2h.7v2h-.7v1.4h.5v2h-.5v1.5h.8v2h-.8v1.4h.6v2h-.6v1.6h.9v2h-.9v1.8h.8v2h-.8v1.6h1.1v2H367v2.2h3l1.2,3H353.4v-47c0,.1,10,22.4,14.6-35.5Z" transform="translate(-292.9 -168.5)"/><path class="cls-2" d="M363.2,252.4h3V257h-3Z" transform="translate(-292.9 -168.5)"/><path class="cls-3" d="M363.2,253.4v.7a2.4,2.4,0,0,0,3,0v-1.4Z" transform="translate(-292.9 -168.5)"/><path class="cls-4" d="M364.6,222.5c-4.5.2-5.2,14.9-5.1,23.1s5.1,8.1,5.1,8.1,5,.1,5.1-8.1S369.1,222.7,364.6,222.5Z" transform="translate(-292.9 -168.5)"/><path class="cls-5" d="M369.4,240.9c-1.2,4.7-3.2,7.7-5.8,8.4a3.37,3.37,0,0,1-3.9-1.6c.9,6.1,4.9,5.9,4.9,5.9s5,.1,5.1-8.1c0-1.8,0-3.8-.1-6a5.21,5.21,0,0,1-.2,1.4Z" transform="translate(-292.9 -168.5)"/><path class="cls-6" d="M363.5,228.2c-.6,1.4-1.4,2.1-1.7,1.5s-.1-2.2.5-3.7,1.4-2.1,1.7-1.5A5.82,5.82,0,0,1,363.5,228.2Z" transform="translate(-292.9 -168.5)"/><path class="cls-2" d="M374.7,253.6h2.5V257h-2.5Z" transform="translate(-292.9 -168.5)"/><path class="cls-3" d="M374.7,254.4v.5a2.19,2.19,0,0,0,2.5,0v-1Z" transform="translate(-292.9 -168.5)"/><path class="cls-4" d="M375.9,231.9c-3.8.2-4.4,10.9-4.3,16.9s4.3,5.9,4.3,5.9,4.3.1,4.3-5.9S379.7,232,375.9,231.9Z" transform="translate(-292.9 -168.5)"/><path class="cls-5" d="M379.9,245.3c-1.1,3.4-2.7,5.6-4.9,6.2a3.15,3.15,0,0,1-3.3-1.1c.7,4.4,4.2,4.3,4.2,4.3s4.3.1,4.3-5.9c0-1.3,0-2.8-.1-4.3A3.09,3.09,0,0,1,379.9,245.3Z" transform="translate(-292.9 -168.5)"/><path class="cls-6" d="M374.9,236c-.5,1-1.2,1.5-1.4,1.1s-.1-1.6.5-2.7,1.2-1.5,1.4-1.1A4.21,4.21,0,0,1,374.9,236Z" transform="translate(-292.9 -168.5)"/></svg>