<svg xmlns="http://www.w3.org/2000/svg" width="63.667" height="32.093" viewBox="0 0 63.667 32.093"><defs><style>.a{fill:#91aac4;}.b{fill:#e1e9f2;}.c{fill:#b3d2f2;}.d{fill:#d1e0f0;}.e{fill:#3f5666;}</style></defs><g transform="translate(0 -126.954)"><g transform="translate(9.907 144.629)"><path class="a" d="M79.674,301.1l.74,8.932a.5.5,0,0,0,.5.461H88.9a.593.593,0,0,0,.594-.566l.023-.506a1.552,1.552,0,0,0-.549-1.257l-1.185-1a1.552,1.552,0,0,1-.519-1.5l1.189-5.759Z" transform="translate(-79.674 -296.07)"/><path class="a" d="M211.391,269.661,208,279.133a.5.5,0,0,0,.223.6l1.924,1.1a.5.5,0,0,1,.251.4l.129,1.734a.5.5,0,0,1-.5.54h-7.4a.5.5,0,0,1-.5-.555l1.454-13.863Z" transform="translate(-186.895 -269.095)"/></g><path class="b" d="M70.324,136.88l-.42,2.668c-1.429,1.314-4.513,1.8-4.513,1.8L54.6,140.758a.538.538,0,0,0-.3.072l-7.267,4.236a.534.534,0,0,0-.261.53l1.139,8.806a.5.5,0,0,0,.26.377l2.427,1.3a.5.5,0,0,1,.263.4l.184,2.021a.506.506,0,0,1-.5.548H43.75a.5.5,0,0,1-.481-.352l-2.986-9.366-2.156-1.853a.537.537,0,0,0-.594-.072c-5.1,2.627-8.033,6.026-13.807,5.455l-13.146-1.3-2.969-.294v-8.745a14.085,14.085,0,0,1,14.1-14.068H37.826a4.258,4.258,0,0,1,6.482,0h8.207l7.325,1.056a6.023,6.023,0,0,1,3.693,2.018l2.1,2.419a23.491,23.491,0,0,0,4.379,2.363A.534.534,0,0,1,70.324,136.88Z" transform="translate(-6.664 0)"/><path class="a" d="M370.7,161.4a.535.535,0,0,1-.669.452c-.965-.257-2.732-.968-2.436-2.695.228-1.326,1.272-2.17,3.159-1.324a.539.539,0,0,1,.319.557Z" transform="translate(-321.857 -26.744)"/><g transform="translate(0.946 128.45)"><path class="c" d="M10.559,153.056V161.8l.02.294L7.61,161.8v-8.745a14.085,14.085,0,0,1,14.1-14.068h2.949A14.085,14.085,0,0,0,10.559,153.056Z" transform="translate(-7.61 -138.988)"/><path class="c" d="M267.224,303.452l-2.871-9.006a1.338,1.338,0,0,0-.4-.608L262.5,292.59a1.347,1.347,0,0,0-1.517-.161q-.5.271-.98.549l1.288,1.107,2.986,9.367a.505.505,0,0,0,.481.351h2.949A.506.506,0,0,1,267.224,303.452Z" transform="translate(-228.616 -273.206)"/></g><path class="d" d="M69.934,219.256l-.029.191c-1.429,1.314-4.513,1.8-4.513,1.8L54.6,220.657a.538.538,0,0,0-.3.072l-7.267,4.236a.534.534,0,0,0-.261.53l1.139,8.806a.5.5,0,0,0,.26.377l2.427,1.3a.5.5,0,0,1,.263.4l.184,2.021a.506.506,0,0,1-.5.548H43.75a.5.5,0,0,1-.481-.352l-2.986-9.366-2.429-2.087c-5.3,2.646-8.234,6.2-14.129,5.618l-16.115-1.6v-7c2.95.969,12.359,3.55,21.907.7,11.527-3.439,15.816-6.381,22.92-6.649C58.53,217.99,64.178,219.827,69.934,219.256Z" transform="translate(-6.664 -79.899)"/><ellipse class="e" cx="1.005" cy="1.003" rx="1.005" ry="1.003" transform="translate(53.509 132.579)"/><path class="b" d="M2.861,195.174C-.242,200.378,0,210.96,0,210.96v7.321a.5.5,0,0,0,.5.5H8.749a.864.864,0,0,0,.864-.909l-.041-.771a1.332,1.332,0,0,0-.607-1.047h0a1.33,1.33,0,0,1-.478-1.692l.419-.875s5.331-7.619,7.561-7.619Z" transform="translate(0 -59.737)"/><path class="c" d="M2.953,218.28v-7.321s-.2-8.606,2.037-14.113l-2.129-1.674C-.242,200.378,0,210.959,0,210.959v7.321a.5.5,0,0,0,.5.5H3.457A.5.5,0,0,1,2.953,218.28Z" transform="translate(0 -59.736)"/></g></svg>