<svg xmlns="http://www.w3.org/2000/svg" width="63.667" height="33.932" viewBox="0 0 63.667 33.932"><defs><style>.a{fill:#f2f2f2;}.b{fill:#999;}.c{fill:#b3b3b3;}.d{fill:#ccc;}</style></defs><path class="a" d="M96.017,69.457,92,76.5l-3.5-6.268L92.478,62.9Z" transform="translate(-78.265 -55.625)"/><path class="b" d="M21.2,125.961l3.076,6.338v3.331l.208,3.053L9.726,139.7H0v-.382l10.235-18.944,3.5,1.561,4.013-2.336Z" transform="translate(0 -105.768)"/><path class="c" d="M118.8,121.936l8.327,10.282-.867-6.257-3.446-6.361Z" transform="translate(-105.06 -105.768)"/><path class="a" d="M402.214,139.8l2.706,3.308-2.938,5-2.683-4.742Z" transform="translate(-353.12 -123.632)"/><path class="a" d="M224.109,0l6.662,11.554-.474,6.534-13.2-.081,2.3-9.113-.081-.035Z" transform="translate(-191.992)"/><path class="b" d="M374.373,182.382l1.11.474H365.271l-11.334-1.11L353,175.732l3.319-4.591,2.035-2.487,2.683,2.093,2.938-2.348Z" transform="translate(-312.175 -148.924)"/><path class="c" d="M121.109,94.746l1.527-.948,4.834,7.876H84.1l7.078-11.519,2.394,1.48h0l2-3.7L101.7,76.6l.081.035,1.411,4.036,4.95-3.631,5.147,3.273,5.227,9.645Z" transform="translate(-74.374 -67.741)"/><path class="d" d="M292,80.4l.289,6.5,3.481,7.448,1.423-1.214,4.522,6.9,3.25-1.931-7.957-15.451Z" transform="translate(-258.229 -71.102)"/><path class="b" d="M166,91.635l5.7,3.631,3.921-14.6L174.13,76.6" transform="translate(-146.802 -67.741)"/><path class="c" d="M422.5,170.748l7.679,12.109H437.3L425.438,168.4Z" transform="translate(-373.637 -148.924)"/></svg>