<svg xmlns="http://www.w3.org/2000/svg" xmlns:xlink="http://www.w3.org/1999/xlink" width="63.667" height="59.945" viewBox="0 0 63.667 59.945"><defs><style>.a{fill:url(#a);}</style><linearGradient id="a" y1="0.5" x2="1.001" y2="0.5" gradientUnits="objectBoundingBox"><stop offset="0" stop-color="#ff3b30"/><stop offset="1" stop-color="#e60200"/></linearGradient></defs><path class="a" d="M52.851,42.389c-.056-.056.335-.781.362-.892a26.075,26.075,0,0,0,.585-18.37A24.418,24.418,0,0,0,40.2,8.493,22.119,22.119,0,0,0,25.84,7.517a24.535,24.535,0,0,1,8.251,1.617,21.171,21.171,0,0,1,7.248,4.822,19.578,19.578,0,0,1,5.073,18.7A17.908,17.908,0,0,1,45.3,35.615c-1.784-1.589-3.54-3.178-5.324-4.767l-6.411-5.742a.739.739,0,0,0-.167-.139L37.743,20.2c-.167-.139-.334-.307-.5-.446-.028-.028-.139-.167-.2-.167-.279.111-.558.2-.836.279a8.148,8.148,0,0,1-3.484.2,8.619,8.619,0,0,1-5.241-3.011c-1.505,1.673-3.011,3.317-4.516,4.99-2.174,2.4-4.349,4.795-6.551,7.192l-.808.892,6.188,5.6.948.864c.056.056.056,0,.111-.056.167-.2.335-.362.5-.558l3.234-3.568.251-.251.112.112c.279.251.558.5.864.753,1.115,1,2.23,2.007,3.345,2.983,2.369,2.119,4.739,4.237,7.08,6.356.2.167.39.362.585.53a18.832,18.832,0,0,1-8.753,2.788A19.366,19.366,0,0,1,25,45.344a24.941,24.941,0,0,1-4.376-1.394c-.084-.028-1-.474-1.031-.446L15.861,47.8c-1.282-1.031-2.565-2.091-3.819-3.122L1.505,57.637C1,58.25,0,59.449,0,59.449L1.728,60.87,8.864,66.7c1.617-1.979,3.206-3.958,4.822-5.91l4.042-4.962a4.617,4.617,0,0,1,.669.307c.362.167.7.307,1.059.446a26.2,26.2,0,0,0,19.652-.558,28.41,28.41,0,0,0,4.321-2.4c.7-.474,1.366-.976,2.035-1.533.167-.139,1.784-1.617,1.756-1.617.641.585,1.282,1.143,1.923,1.728,2.453,2.2,4.906,4.376,7.331,6.579.251.223.5.446.725.669,1.868-2.063,3.707-4.153,5.575-6.216l.892-.976Z" transform="translate(0 -6.751)"/></svg>