<svg xmlns="http://www.w3.org/2000/svg" xmlns:xlink="http://www.w3.org/1999/xlink" width="63.667" height="78.033" viewBox="0 0 63.667 78.033"><defs><style>.a{fill:url(#a);}.b{fill:url(#b);}.c{fill:url(#c);}.d{fill:url(#d);}.e{fill:url(#e);}.f{fill:url(#f);}.g{fill:url(#g);}.h{fill:url(#h);}.i{fill:url(#i);}.j{fill:url(#j);}.k{fill:url(#k);}.l{fill:url(#l);}.m{fill:url(#m);}.n{fill:url(#n);}.o{fill:url(#o);}.p{fill:url(#p);}.q{fill:url(#q);}.r{fill:url(#r);}.s{fill:url(#s);}.t{fill:url(#t);}.u{fill:url(#u);}.v{fill:url(#v);}.w{fill:url(#w);}.x{fill:url(#x);}.y{fill:url(#y);}.z{fill:url(#z);}.aa{fill:url(#aa);}.ab{fill:url(#ab);}.ac{fill:url(#ac);}.ad{fill:url(#ad);}.ae{fill:url(#ae);}</style><linearGradient id="a" x1="0.655" y1="0.523" x2="0.976" y2="0.543" gradientUnits="objectBoundingBox"><stop offset="0" stop-color="#d14f4b"/><stop offset="1" stop-color="#ad3324"/></linearGradient><linearGradient id="b" x1="0.48" y1="0.167" x2="0.562" y2="1.546" gradientUnits="objectBoundingBox"><stop offset="0" stop-color="#ad3324" stop-opacity="0"/><stop offset="1" stop-color="#972e07"/></linearGradient><linearGradient id="c" x1="0.473" y1="0.168" x2="0.585" y2="1.531" xlink:href="#b"/><linearGradient id="d" x1="0.459" y1="0.167" x2="0.62" y2="1.527" xlink:href="#b"/><linearGradient id="e" x1="0.371" y1="0.166" x2="0.597" y2="1.525" xlink:href="#b"/><linearGradient id="f" x1="0.438" y1="0.16" x2="0.684" y2="1.519" xlink:href="#b"/><linearGradient id="g" x1="0.453" y1="0.155" x2="0.642" y2="1.534" xlink:href="#b"/><linearGradient id="h" x1="0.388" y1="0.136" x2="0.486" y2="0.502" gradientUnits="objectBoundingBox"><stop offset="0" stop-color="#00a899"/><stop offset="1" stop-color="#008b7a"/></linearGradient><linearGradient id="i" x1="0.379" y1="0.072" x2="0.451" y2="0.386" xlink:href="#h"/><linearGradient id="j" x1="0.564" y1="0.231" x2="0.495" y2="0.944" xlink:href="#h"/><linearGradient id="k" x1="0.5" y1="0.172" x2="0.5" y2="0.788" xlink:href="#h"/><linearGradient id="l" x1="0.588" y1="0.47" x2="1.112" y2="0.762" xlink:href="#h"/><linearGradient id="m" x1="0.65" y1="-0.276" x2="0.514" y2="0.816" gradientUnits="objectBoundingBox"><stop offset="0" stop-color="#00a899" stop-opacity="0"/><stop offset="1" stop-color="#006d5f"/></linearGradient><linearGradient id="n" x1="0.389" y1="0.049" x2="0.664" y2="1.511" xlink:href="#m"/><linearGradient id="o" x1="0.367" y1="0.049" x2="0.578" y2="1.032" xlink:href="#h"/><linearGradient id="p" x1="0.479" y1="0.17" x2="0.564" y2="0.911" xlink:href="#m"/><linearGradient id="q" x1="0.357" y1="0.102" x2="0.709" y2="0.867" xlink:href="#m"/><linearGradient id="r" x1="0.326" y1="0.462" x2="0.611" y2="0.524" xlink:href="#a"/><linearGradient id="s" x1="-80.689" y1="-11.821" x2="-80.545" y2="-11.553" xlink:href="#h"/><linearGradient id="t" x1="-48.59" y1="-13.324" x2="-48.495" y2="-13.145" xlink:href="#h"/><linearGradient id="u" x1="-39.455" y1="-14.867" x2="-39.532" y2="-14.374" xlink:href="#h"/><linearGradient id="v" x1="-39.474" y1="-20.551" x2="-39.474" y2="-19.927" xlink:href="#h"/><linearGradient id="w" x1="-56.326" y1="-18.091" x2="-56.013" y2="-17.679" xlink:href="#h"/><linearGradient id="x" x1="-41.821" y1="-18.595" x2="-41.973" y2="-17.949" xlink:href="#m"/><linearGradient id="y" x1="-40.153" y1="-27.858" x2="-39.883" y2="-26.369" xlink:href="#m"/><linearGradient id="z" x1="-22.815" y1="-7.122" x2="-22.614" y2="-6.289" xlink:href="#h"/><linearGradient id="aa" x1="-31.759" y1="-13.374" x2="-31.699" y2="-12.29" xlink:href="#m"/><linearGradient id="ab" x1="-75.509" y1="-8.101" x2="-75.011" y2="-7.37" xlink:href="#m"/><linearGradient id="ac" x1="0.5" y1="0.286" x2="0.5" y2="0.867" gradientUnits="objectBoundingBox"><stop offset="0" stop-color="#ffc738"/><stop offset="0.429" stop-color="#ffbb23"/><stop offset="1" stop-color="#ffa700"/></linearGradient><linearGradient id="ad" x1="0.521" y1="0.474" x2="-0.254" y2="-2.486" gradientUnits="objectBoundingBox"><stop offset="0" stop-color="#e58200" stop-opacity="0"/><stop offset="0.04" stop-color="#e27f04" stop-opacity="0.039"/><stop offset="0.467" stop-color="#c15d2f" stop-opacity="0.467"/><stop offset="0.802" stop-color="#ad4949" stop-opacity="0.8"/><stop offset="1" stop-color="#a64153"/></linearGradient><linearGradient id="ae" x1="0.845" y1="0.199" x2="0.637" y2="-1.264" xlink:href="#ad"/></defs><g transform="translate(-0.501 0)"><path class="a" d="M112.149,102.66s15.169,16.551,2.221,54.079H102.347C121.882,127.486,112.149,102.66,112.149,102.66Zm0,0" transform="translate(-86.324 -87.013)"/><path class="b" d="M117.243,393.52c-.745,3.077-1.691,6.327-2.873,9.75H102.348a78.858,78.858,0,0,0,5.573-9.75Zm0,0" transform="translate(-86.324 -333.544)"/><path class="c" d="M150.084,327.07a85.6,85.6,0,0,1-1.847,10.127h-9.323a70.255,70.255,0,0,0,3.932-10.127Zm0,0" transform="translate(-117.317 -277.221)"/><path class="d" d="M171.952,270.752h-7.238a64.671,64.671,0,0,0,2.186-10.127h5.532A67.7,67.7,0,0,1,171.952,270.752Zm0,0" transform="translate(-139.186 -220.903)"/><path class="e" d="M179.055,204.3a61.125,61.125,0,0,0,.5-10.127h3.805a53.494,53.494,0,0,1,1.227,10.127Zm0,0" transform="translate(-151.341 -164.581)"/><path class="f" d="M178.966,137.854h-3.8a53.659,53.659,0,0,0-1.29-10.127H175.3A39.558,39.558,0,0,1,178.966,137.854Zm0,0" transform="translate(-146.947 -108.26)"/><path class="g" d="M169.192,106.514h-1.426a30.3,30.3,0,0,0-1.1-3.814A20.447,20.447,0,0,1,169.192,106.514Zm0,0" transform="translate(-140.841 -87.047)"/><path class="h" d="M195.453,32.655c-5.186,1.247-12.5,4.4-16.66,12.4,0,0-1.029-19.47,16.646-15.267a1.475,1.475,0,0,1,.014,2.87Zm0,0" transform="translate(-151.109 -24.741)"/><path class="i" d="M.705,120.551c3.486-6.089,11.281-13.713,26.979-5.871a40.728,40.728,0,0,0-24.825,7.786,1.474,1.474,0,0,1-2.153-1.915Zm0,0" transform="translate(0 -94.369)"/><path class="j" d="M203.475,75.265c-5.519-3.514-14.642-6.969-24.62-1.009,3.02-10.467,16.329-16.963,26.652-1.03A1.474,1.474,0,0,1,203.475,75.265Zm0,0" transform="translate(-151.171 -53.945)"/><path class="k" d="M18.961,51.057c6.961-4.959,18.7-9.786,23.839,8.712-4.574-4.947-12.1-8.324-22.683-6.067a1.475,1.475,0,0,1-1.156-2.645Zm0,0" transform="translate(-15.116 -39.459)"/><path class="l" d="M118.875,2.342a67.507,67.507,0,0,1,8.9,17.969S133.492,4.184,120.525.074a1.476,1.476,0,0,0-1.65,2.268Zm0,0" transform="translate(-100.088 0)"/><path class="m" d="M203.475,95.233a1.485,1.485,0,0,0,.611.223c-12.081-17.817-25.232-1.232-25.232-1.232,9.979-5.959,19.1-2.505,24.62,1.009Zm0,0" transform="translate(-151.171 -73.913)"/><path class="n" d="M18.554,71.138A1.449,1.449,0,0,0,20.3,72.312c10.582-2.256,18.109,1.12,22.683,6.068,0,0-6.929-16.015-24.431-7.241Zm0,0" transform="translate(-15.302 -58.069)"/><path class="o" d="M67.7,109.406c-11.335-10.9-24.269,10.743-16.2,27.356a1.476,1.476,0,0,0,2.8-.558c.864-13.049,6.16-19.764,10.1-23a6.245,6.245,0,0,1,8.275.357C79.3,119.915,83.1,130.108,84.77,135.6a1.476,1.476,0,0,0,2.795.08c6.454-17.079-10.45-30.7-18.944-26.156a.789.789,0,0,1-.922-.121Zm0,0" transform="translate(-41.094 -90.235)"/><path class="p" d="M192.556,148.789a1.461,1.461,0,0,0,1.415-.961c6.583-17.423-11.141-31.248-19.447-25.859,0,0,16.8-4.3,18.032,26.82Zm0,0" transform="translate(-147.5 -102.378)"/><path class="q" d="M51.5,136.762a1.451,1.451,0,0,0,1.931.686c-6.6-30.129,14.264-28.042,14.264-28.042-11.335-10.9-24.269,10.743-16.2,27.356Zm0,0" transform="translate(-41.094 -90.234)"/><path class="r" d="M231.059,291.668s-13.382,4.313-17.954,28.751h6.544c1.428-21.1,11.41-28.751,11.41-28.751Zm0,0" transform="translate(-180.201 -247.215)"/><path class="s" d="M278.826,217.535a15.467,15.467,0,0,1,5.231,11.907s6.589-10.28-4.335-13.465A.924.924,0,0,0,278.826,217.535Zm0,0" transform="translate(-235.655 -183.026)"/><path class="t" d="M327.661,316.1c-.012-4.394-1.895-10.958-12.868-11.55a25.508,25.508,0,0,1,11.1,11.925A.923.923,0,0,0,327.661,316.1Zm0,0" transform="translate(-266.391 -258.134)"/><path class="u" d="M219.4,238.065c4.093-.2,10.129.741,13.715,7.074,1.6-6.633-3.636-14.29-14.19-8.813a.923.923,0,0,0,.475,1.739Zm0,0" transform="translate(-184.716 -198.723)"/><path class="v" d="M330.467,283.949c-2.254-4.855-7.148-11.116-15.674-2.639,4.022-1.277,9.164-.784,14.226,3.72a.923.923,0,0,0,1.448-1.082Zm0,0" transform="translate(-266.391 -234.894)"/><path class="w" d="M325.2,247.618a42.287,42.287,0,0,0-10.407,7.027s1.879-10.55,10.211-8.772A.924.924,0,0,1,325.2,247.618Zm0,0" transform="translate(-266.391 -208.229)"/><path class="x" d="M222.566,249.116a.93.93,0,0,1-.4-.068c12.093-5.958,14.117,7.142,14.117,7.142-3.586-6.334-9.622-7.279-13.715-7.074Zm0,0" transform="translate(-187.88 -209.774)"/><path class="y" d="M330.331,296.578a.908.908,0,0,1-1.315.1c-5.062-4.5-10.2-5-14.226-3.72,0,0,8.731-6.573,15.542,3.623Zm0,0" transform="translate(-266.388 -246.538)"/><path class="z" d="M215.5,286.953c9.545-2.423,9.885,13.363.345,19.906a.924.924,0,0,1-1.349-1.169c3.57-7.371,2.766-12.666,1.625-15.644a3.911,3.911,0,0,0-4.615-2.368c-5.576,1.4-10.8,5.777-13.411,8.251a.924.924,0,0,1-1.545-.822c1.775-11.3,15.194-13.476,18.411-8.372a.494.494,0,0,0,.539.219Zm0,0" transform="translate(-166.158 -240.822)"/><path class="aa" d="M197.02,296.067a.913.913,0,0,1-.472-.961c1.81-11.523,15.74-13.561,18.593-8.055,0,0-7.817-7.543-18.121,9.016Zm0,0" transform="translate(-166.157 -240.822)"/><path class="ab" d="M316.2,321.188a.908.908,0,0,1-1.263-.224c12.923-14.357.918-19.682.918-19.682,9.545-2.423,9.885,13.362.345,19.906Zm0,0" transform="translate(-266.511 -255.151)"/><path class="ac" d="M107.091,440.231c0,4.787-44.845,4.787-44.845,0s10.039-8.669,22.423-8.669S107.091,435.443,107.091,440.231Zm0,0" transform="translate(-52.334 -365.788)"/><path class="ad" d="M124.625,431.563a46.6,46.6,0,0,0-15.238,2.311l9.855,9.855c12.682.449,27.805-.717,27.805-3.5,0-4.788-10.039-8.669-22.422-8.669Zm0,0" transform="translate(-92.29 -365.789)"/><path class="ae" d="M223.172,431.441l.25.083,11.39,11.516c5.1-.561,8.656-1.51,8.663-2.856.025-4.517-8.893-8.276-20.3-8.743Zm0,0" transform="translate(-188.734 -365.685)"/></g></svg>