<svg xmlns="http://www.w3.org/2000/svg" width="63.667" height="63.385" viewBox="0 0 63.667 63.385"><defs><style>.a{fill:#eb805b;}.b{fill:#e66032;}.c{fill:#ad4826;}</style></defs><g transform="translate(0 -1.066)"><g transform="translate(0 1.066)"><path class="a" d="M14.318,53.308H11.48a6.152,6.152,0,0,0-6.44-4,5.784,5.784,0,0,0-5,4.961,5.646,5.646,0,0,0,1.382,4.48A5.977,5.977,0,0,0,5.9,60.721h8.416a3.622,3.622,0,0,0,3.811-3.585v-.049A3.8,3.8,0,0,0,14.318,53.308Z" transform="translate(0 -42.874)"/><path class="a" d="M302.268,5.146h-2.837A6.155,6.155,0,0,0,292.99,1.12a5.791,5.791,0,0,0-5,4.974,5.663,5.663,0,0,0,1.386,4.492,5.974,5.974,0,0,0,4.473,1.973h8.416a3.632,3.632,0,0,0,3.818-3.584V8.883A3.789,3.789,0,0,0,302.268,5.146Z" transform="translate(-249.832 -1.066)"/></g><g transform="translate(0.126 11.5)"><path class="b" d="M140.993,226.182a18.256,18.256,0,0,0-18.02-18.294c-9.953,0-18.019,8.479-18.019,18.432,0,.813.073,1.706.177,2.806h35.684C140.92,228.026,140.993,227,140.993,226.182Z" transform="translate(-91.187 -190.944)"/><path class="b" d="M234.013,88.36a1.058,1.058,0,0,1-1.059-1.059V80.947a1.059,1.059,0,1,1,2.118,0V87.3A1.058,1.058,0,0,1,234.013,88.36Z" transform="translate(-202.243 -79.888)"/><path class="b" d="M234.013,164.124a1.058,1.058,0,0,1-1.059-1.059v-2.118a1.059,1.059,0,0,1,2.118,0v2.118A1.058,1.058,0,0,1,234.013,164.124Z" transform="translate(-202.243 -149.298)"/><path class="b" d="M388.355,166.277a1.059,1.059,0,0,1-.749-1.808l3.873-3.873a1.059,1.059,0,1,1,1.5,1.5l-3.873,3.873A1.056,1.056,0,0,1,388.355,166.277Z" transform="translate(-336.154 -149.643)"/><path class="b" d="M354.411,215.783a1.059,1.059,0,0,1-.749-1.808l1.5-1.5a1.059,1.059,0,0,1,1.5,1.5l-1.5,1.5A1.052,1.052,0,0,1,354.411,215.783Z" transform="translate(-306.703 -194.656)"/><path class="b" d="M445.19,314.006h-3.177a1.059,1.059,0,1,1,0-2.118h3.177a1.059,1.059,0,1,1,0,2.118Z" transform="translate(-382.709 -281.177)"/><path class="b" d="M396.131,314.006h-2.118a1.059,1.059,0,1,1,0-2.118h2.118a1.059,1.059,0,1,1,0,2.118Z" transform="translate(-341.063 -281.177)"/><path class="b" d="M5.19,314.006H2.013a1.059,1.059,0,1,1,0-2.118H5.19a1.059,1.059,0,1,1,0,2.118Z" transform="translate(-0.954 -281.177)"/><path class="b" d="M60.131,314.006H58.013a1.059,1.059,0,1,1,0-2.118h2.118a1.059,1.059,0,1,1,0,2.118Z" transform="translate(-49.541 -281.177)"/><path class="b" d="M70.284,166.277a1.056,1.056,0,0,1-.749-.31l-3.873-3.873a1.059,1.059,0,0,1,1.5-1.5l3.873,3.873a1.059,1.059,0,0,1-.749,1.808Z" transform="translate(-56.827 -149.643)"/><path class="b" d="M119.79,215.783a1.056,1.056,0,0,1-.749-.31l-1.5-1.5a1.059,1.059,0,0,1,1.5-1.5l1.5,1.5a1.059,1.059,0,0,1-.749,1.808Z" transform="translate(-101.84 -194.656)"/></g><g transform="translate(0.126 49.624)"><path class="c" d="M38.019,370.006H2.013a1.059,1.059,0,0,1,0-2.118H38.019a1.059,1.059,0,0,1,0,2.118Z" transform="translate(-0.954 -367.888)"/><path class="c" d="M341.075,370.006H322.013a1.059,1.059,0,0,1,0-2.118h19.062a1.059,1.059,0,0,1,0,2.118Z" transform="translate(-278.594 -367.888)"/><path class="c" d="M229.547,418.006H202.013a1.059,1.059,0,1,1,0-2.118h27.534a1.059,1.059,0,1,1,0,2.118Z" transform="translate(-174.479 -409.534)"/><path class="c" d="M84.6,418.006H74.013a1.059,1.059,0,1,1,0-2.118H84.6a1.059,1.059,0,1,1,0,2.118Z" transform="translate(-63.423 -409.534)"/><path class="c" d="M313.426,466.006h-7.413a1.059,1.059,0,1,1,0-2.118h7.413a1.059,1.059,0,1,1,0,2.118Z" transform="translate(-264.712 -451.18)"/><path class="c" d="M133.075,466.006H114.013a1.059,1.059,0,1,1,0-2.118h19.062a1.059,1.059,0,1,1,0,2.118Z" transform="translate(-98.128 -451.18)"/></g></g></svg>