<svg xmlns="http://www.w3.org/2000/svg" width="63.667" height="52.948" viewBox="0 0 63.667 52.948"><defs><style>.a{fill:#e8faff;}.b{fill:#b2edff;}.c{fill:#00c3ff;}.d{fill:#00aaf0;}.e{fill:#d1f4ff;}.f{fill:#fff;}.g{fill:#59d8ff;}</style></defs><g transform="translate(0 -43.1)"><path class="a" d="M24.309,43.263C14.143,44.526,0,56.649,0,68.772L36.621,49.767S35.463,41.878,24.309,43.263Z" transform="translate(0 0)"/><path class="b" d="M76.988,141.415a2.005,2.005,0,0,0-1.664-1.98c-16.576-2.784-40.759-15.156-35.466-26.776,1.936-4.251,7.387-4.862,7.387-4.862v-4.483h-13.7l-18.31,13.007v19.573l34.474,11.87,27.3-.005Z" transform="translate(-13.339 -52.727)"/><path class="c" d="M66.147,139.7c-13.421-4.322-28.717-13.144-30.585-22.3-.811-3.97,1.012-10.048,8.083-14.089h-10.1L15.233,116.32v16.818l18.391-6.032a31.784,31.784,0,0,0,7.151,6.684,1.01,1.01,0,1,0,1.153-1.659,25.869,25.869,0,0,1-9.054-10.193,1.058,1.058,0,0,1,.476-1.359h0a.984.984,0,0,1,1.352.462c4.78,9.866,21.1,17.45,30.826,20.584a1.026,1.026,0,0,0,.31.048,1.011,1.011,0,0,0,.31-1.972Z" transform="translate(-13.339 -52.726)"/><path class="d" d="M15.233,116.32v16.818l13.535-4.44c-.444-1.013-.875-2.064-1.286-3.16-6.061-16.164,10.1-22.225,10.1-22.225H33.543Z" transform="translate(-13.339 -52.726)"/><path class="e" d="M50.1,93.222S58.26,79,73.465,79a15.834,15.834,0,0,1,7.972,2.392c5.367,3.915-.557,10.182-3.389,5.935-3.241-4.862-9.1-5.952-14.775-3.662C56.708,86.318,53.045,92.8,53.045,92.8l-2.946.421" transform="translate(-43.869 -31.438)"/><path class="f" d="M4.63,183.339c-4.967-3.873-2.87-14.144,6.482-11.449,4.967,1.431,6.9-2.61,4.041-4.462-1.51-.977-4.878-.967-8.623.241a9.45,9.45,0,0,0-6.53,9v13.492a7.072,7.072,0,0,0,7.072,7.072h0Z" transform="translate(0 -108.254)"/><path class="e" d="M7.072,231.071,4.63,217.18c-4.121-3.213-3.374-10.824,2.34-11.787l-.046-.021C4.483,205.647,0,207.015,0,214.907H0A21.191,21.191,0,0,0,7.072,231.071Z" transform="translate(0 -142.095)"/><path class="c" d="M50.907,314.625s12.132,16.754,45.711,17.085a1.017,1.017,0,0,1,1.012,1.01h0a1.015,1.015,0,0,1-1.015,1.015H55.706a19,19,0,0,1-14.648-7.072c-3.24-4.226-2.02-12.123-2.02-12.123Z" transform="translate(-33.986 -237.688)"/><path class="d" d="M96.641,331.716H66.312c-8.208,0-14.079-2.794-17.86-6.48a2.189,2.189,0,0,1,1.572-3.73h.019a5.052,5.052,0,0,0,4.5-3.162,25.218,25.218,0,0,1-3.634-3.717l-11.87-.084s-1.219,7.9,2.02,12.123A19,19,0,0,0,55.7,333.736H96.614a1.01,1.01,0,0,0,.028-2.021Z" transform="translate(-33.985 -237.689)"/><path class="a" d="M23.321,271.669c-1.445,5.965,3.957,11.2,3.957,11.2s-2.889-5.025-.694-8.65c1.452-2.4,4.42-2.9,7.766.568,2.55,2.647,6.049-1.1,4.431-3.934,1.464.27,2.966-.256,3.146-1.622C42.585,264.216,25.931,260.894,23.321,271.669Z" transform="translate(-20.206 -193.89)"/><path class="e" d="M36.024,295.962c1.452-2.4,4.42-2.9,7.766.568,2.55,2.647,6.049-1.1,4.431-3.934-3-4.063-10.555-4.526-13.144-.107-2.69,4.593-.379,9.429,1.642,12.123C36.719,304.612,33.83,299.588,36.024,295.962Z" transform="translate(-29.647 -215.636)"/><g transform="translate(30.218 81.236)"><path class="g" d="M449.786,407.5a1,1,0,0,1-.214-.023q-.849-.182-1.765-.414a1.01,1.01,0,0,1,.494-1.959q.88.222,1.7.4a1.01,1.01,0,0,1-.212,2Z" transform="translate(-421.673 -398.196)"/><path class="g" d="M245.329,352.519a1,1,0,0,1-.466-.114q-.683-.355-1.34-.726a1.011,1.011,0,0,1,.994-1.76q.628.355,1.28.694a1.01,1.01,0,0,1-.468,1.906Z" transform="translate(-243.01 -349.787)"/></g></g></svg>