<svg xmlns="http://www.w3.org/2000/svg" viewBox="0 0 74.9 61.09"><defs><style>.cls-1{isolation:isolate;}.cls-2,.cls-5{fill:#e0dfdb;}.cls-3{fill:#ea3e10;}.cls-4{fill:#e6e6e6;}.cls-4,.cls-5,.cls-9{mix-blend-mode:multiply;}.cls-6{fill:#abaaa7;}.cls-7{fill:#d6260e;}.cls-8{fill:#4d4c4b;}.cls-9{fill:#f2f2f2;}.cls-10{fill:#333;mix-blend-mode:screen;}</style></defs><title>граница</title><g class="cls-1"><g id="Layer_1" data-name="Layer 1"><path class="cls-2" d="M110.65,43.39A3.64,3.64,0,0,1,107,47H48.57a3.65,3.65,0,0,1-3.65-3.65h0a3.66,3.66,0,0,1,3.65-3.65H107a3.65,3.65,0,0,1,3.65,3.65Z" transform="translate(-35.75 -32.83)"/><path class="cls-3" d="M63.19,93.88a13.72,13.72,0,0,0-27.44,0Z" transform="translate(-35.75 -32.83)"/><path class="cls-3" d="M58.45,41.63h0a9,9,0,0,0-18,0h0V93.92h18Z" transform="translate(-35.75 -32.83)"/><path class="cls-4" d="M52.14,74.42a2.66,2.66,0,0,1-2.67,2.66h0a2.66,2.66,0,0,1-2.66-2.66V44.91a2.67,2.67,0,0,1,2.66-2.67h0a2.67,2.67,0,0,1,2.67,2.67Z" transform="translate(-35.75 -32.83)"/><path class="cls-5" d="M49.47,48.45a5.06,5.06,0,1,1,5.06-5.06A5.06,5.06,0,0,1,49.47,48.45Z" transform="translate(-35.75 -32.83)"/><path class="cls-2" d="M53.4,43.39a3.93,3.93,0,1,1-3.93-3.92A3.93,3.93,0,0,1,53.4,43.39Z" transform="translate(-35.75 -32.83)"/><path class="cls-6" d="M50.76,43.39a1.29,1.29,0,1,1-2.57,0,1.29,1.29,0,0,1,2.57,0Z" transform="translate(-35.75 -32.83)"/><polygon class="cls-7" points="26.18 13.11 23.88 13.11 26.82 8.02 29.12 8.02 26.18 13.11"/><polygon class="cls-7" points="34.89 13.11 32.6 13.11 35.54 8.02 37.83 8.02 34.89 13.11"/><polygon class="cls-7" points="43.61 13.11 41.32 13.11 44.26 8.02 46.55 8.02 43.61 13.11"/><polygon class="cls-7" points="52.33 13.11 50.03 13.11 52.97 8.02 55.27 8.02 52.33 13.11"/><polygon class="cls-7" points="61.04 13.11 58.75 13.11 61.69 8.02 63.98 8.02 61.04 13.11"/><polygon class="cls-7" points="69.76 13.11 67.47 13.11 70.4 8.02 72.7 8.02 69.76 13.11"/><rect class="cls-8" x="4.76" y="46.96" width="17.96" height="1.85"/><path class="cls-9" d="M63.18,93.76c-1.42-2.52-7-4.4-13.71-4.4s-12.28,1.88-13.71,4.4a.49.49,0,0,1,0,.12H63.19S63.18,93.8,63.18,93.76Z" transform="translate(-35.75 -32.83)"/><path class="cls-10" d="M42.85,76.25a.49.49,0,0,1-.48.49h0a.49.49,0,0,1-.49-.49V41.31a.49.49,0,0,1,.49-.48h0a.49.49,0,0,1,.48.48Z" transform="translate(-35.75 -32.83)"/></g></g></svg>