<svg xmlns="http://www.w3.org/2000/svg" width="39.995" height="37.852" viewBox="0 0 39.995 37.852"><defs><style>.a{fill:#fff;}</style></defs><g transform="translate(0 -12)"><g transform="translate(0 12)"><g transform="translate(0 0)"><path class="a" d="M34.281,26.32a14.284,14.284,0,1,0-28.568-.036v.036A6.062,6.062,0,0,0,0,32.354v.714a6.066,6.066,0,0,0,6.071,6.071h.321l2.535,4.035A9.551,9.551,0,0,0,17.1,47.71h.5a2.857,2.857,0,1,0,0-1.428h-.5a8.148,8.148,0,0,1-6.963-3.892L8.07,39.139h.5A1.433,1.433,0,0,0,10,37.711v-10A1.433,1.433,0,0,0,8.57,26.284H7.142a12.855,12.855,0,0,1,25.711,0H31.424A1.433,1.433,0,0,0,30,27.712v10a1.433,1.433,0,0,0,1.428,1.428h2.5a6.066,6.066,0,0,0,6.071-6.071v-.714A6.062,6.062,0,0,0,34.281,26.32ZM20.354,45.567A1.428,1.428,0,1,1,18.926,47,1.433,1.433,0,0,1,20.354,45.567ZM8.57,27.712v10h-2.5a4.633,4.633,0,0,1-4.642-4.642v-.714a4.633,4.633,0,0,1,4.642-4.642Zm30,5.356a4.633,4.633,0,0,1-4.642,4.642h-2.5v-10h2.5a4.633,4.633,0,0,1,4.642,4.642Z" transform="translate(0 -12)"/><path class="a" d="M273.776,67.636a3.292,3.292,0,0,1-.286-.179,3.294,3.294,0,0,0-.286-.179.672.672,0,0,0-.964.25.7.7,0,0,0,.25.964,3.292,3.292,0,0,1,.286.179,1.448,1.448,0,0,0,.321.179.689.689,0,0,0,.357.107.663.663,0,0,0,.607-.357A.721.721,0,0,0,273.776,67.636Z" transform="translate(-247.851 -62.243)"/><path class="a" d="M142.151,52a10.342,10.342,0,0,0-7.856,3.607.725.725,0,0,0,.071,1,.752.752,0,0,0,.464.179.642.642,0,0,0,.536-.25,9.008,9.008,0,0,1,6.785-3.107,8.865,8.865,0,0,1,1.928.214.758.758,0,0,0,.857-.536.745.745,0,0,0-.536-.857A9.657,9.657,0,0,0,142.151,52Z" transform="translate(-122.153 -48.429)"/></g></g></g></svg>