<svg xmlns="http://www.w3.org/2000/svg" width="40" height="40" viewBox="0 0 40 40"><defs><style>.b,.e{fill:none;}.b,.c{stroke:#fff;}.b{stroke-width:1.8px;}.c{fill:#fff;stroke-width:0.3px;}.d{stroke:none;}</style></defs><g transform="translate(0 -2)"><g class="b" transform="translate(0 2)"><circle class="d" cx="20" cy="20" r="20"/><circle class="e" cx="20" cy="20" r="19.1"/></g><path class="c" d="M103.059,146H88.941A2.945,2.945,0,0,0,86,148.941v9.412a2.944,2.944,0,0,0,2.941,2.941h14.118A2.945,2.945,0,0,0,106,158.353v-9.412A2.945,2.945,0,0,0,103.059,146Zm1.765,12.353a1.767,1.767,0,0,1-1.765,1.765H88.941a1.767,1.767,0,0,1-1.765-1.765v-9.412a1.767,1.767,0,0,1,1.765-1.765h14.118a1.767,1.767,0,0,1,1.765,1.765Zm0,0" transform="translate(-76 -132)"/><path class="c" d="M211.171,218.529l-4.438-2.466a.493.493,0,0,0-.733.431v5.014a.493.493,0,0,0,.739.428l4.438-2.548a.493.493,0,0,0-.006-.859Zm-4.185,2.127v-3.324l2.942,1.635Zm0,0" transform="translate(-188 -197.501)"/></g></svg>